<svg aria-hidden="true" style="position: absolute; width: 0; height: 0; overflow: hidden;" version="1.1" xmlns="http://www.w3.org/2000/svg" xmlns:xlink="http://www.w3.org/1999/xlink">
<defs>
<symbol id="icon-Desktop-icon1-basket" viewBox="0 0 31 32">
<path d="M30.968 0.324h-30.968v30.968h30.968v-30.968z"></path>
</symbol>
<symbol id="icon-Desktop-Icon2-1" viewBox="0 0 22 32">
<path fill="#000" style="fill: var(--color1, #000)" d="M18.248 16.564h-3.011v-2.042c0.82 0 1.475-0.070 1.964-0.209 0.506-0.14 0.908-0.367 1.204-0.681 0.297-0.332 0.559-0.803 0.785-1.414h1.937v18.327h-2.88v-13.981z"></path>
<path fill="#333" style="fill: var(--color2, #333)" d="M12.723 0l0.674 0.272-12.611 31.214-0.674-0.272 12.611-31.214z"></path>
</symbol>
<symbol id="icon-Desktop-Icon3-2" viewBox="0 0 24 32">
<path fill="#000" style="fill: var(--color1, #000)" d="M14.754 28.556c0-1.309 0.209-2.426 0.628-3.351 0.419-0.943 1.169-1.981 2.252-3.116 1.065-1.135 1.798-2.103 2.199-2.906 0.419-0.803 0.628-1.641 0.628-2.513 0-0.785-0.131-1.327-0.393-1.623-0.244-0.314-0.611-0.471-1.1-0.471-0.995 0-1.492 0.602-1.492 1.807v1.964h-2.723v-1.78c0-1.484 0.367-2.618 1.1-3.404 0.733-0.803 1.798-1.204 3.194-1.204s2.461 0.401 3.194 1.204c0.733 0.785 1.1 1.92 1.1 3.404 0 1.117-0.271 2.208-0.812 3.273-0.524 1.065-1.44 2.287-2.749 3.665-0.855 0.908-1.431 1.649-1.728 2.225-0.297 0.559-0.445 1.161-0.445 1.807v0.393h5.472v2.618h-8.326v-1.99z"></path>
<path fill="#333" style="fill: var(--color2, #333)" d="M13.313 0l0.674 0.272-12.611 31.214-0.674-0.272 12.611-31.214z"></path>
</symbol>
<symbol id="icon-Desktop-Icon4-3" viewBox="0 0 23 32">
<path fill="#000" style="fill: var(--color1, #000)" d="M18.226 30.807c-1.414 0-2.487-0.393-3.22-1.178-0.716-0.785-1.073-1.911-1.073-3.377v-1.492h2.723v1.623c0 1.204 0.497 1.807 1.492 1.807 0.489 0 0.855-0.148 1.1-0.445 0.262-0.314 0.393-0.855 0.393-1.623v-1.492c0-0.838-0.148-1.431-0.445-1.78-0.297-0.367-0.777-0.55-1.44-0.55h-0.969v-2.618h1.047c0.576 0 1.004-0.148 1.283-0.445 0.297-0.297 0.445-0.794 0.445-1.492v-1.335c0-0.628-0.131-1.091-0.393-1.388s-0.611-0.445-1.047-0.445c-0.925 0-1.388 0.567-1.388 1.702v1.204h-2.723v-0.969c0-1.466 0.358-2.592 1.073-3.377 0.733-0.785 1.78-1.178 3.142-1.178 1.379 0 2.426 0.393 3.142 1.178 0.716 0.768 1.073 1.885 1.073 3.351v0.655c0 0.995-0.166 1.798-0.497 2.409-0.332 0.593-0.847 1.021-1.545 1.283v0.052c0.751 0.279 1.292 0.733 1.623 1.361s0.497 1.431 0.497 2.409v1.623c0 1.466-0.367 2.592-1.1 3.377-0.716 0.768-1.78 1.152-3.194 1.152z"></path>
<path fill="#333" style="fill: var(--color2, #333)" d="M12.649 0l0.674 0.272-12.611 31.214-0.674-0.272 12.611-31.214z"></path>
</symbol>
<symbol id="icon-Icon-Facebook" viewBox="0 0 33 32">
<path d="M16.082 0c-8.882 0-16.082 7.2-16.082 16.082 0 8.063 5.939 14.72 13.679 15.883v-11.621h-3.979v-4.227h3.979v-2.813c0-4.657 2.269-6.702 6.14-6.702 1.854 0 2.834 0.137 3.298 0.2v3.69h-2.64c-1.643 0-2.217 1.558-2.217 3.314v2.311h4.816l-0.654 4.227h-4.162v11.655c7.85-1.065 13.905-7.777 13.905-15.918 0-8.882-7.2-16.082-16.082-16.082z"></path>
</symbol>
<symbol id="icon-Icon-Instagram" viewBox="0 0 32 32">
<path d="M0 0h32v32h-32v-32z"></path>
</symbol>
<symbol id="icon-Icon-Twitter" viewBox="0 0 32 32">
<path d="M16 0c-8.822 0-16 7.178-16 16s7.178 16 16 16c8.822 0 16-7.178 16-16s-7.177-16-16-16zM23.138 12.338c0.007 0.159 0.011 0.318 0.011 0.478 0 4.867-3.703 10.476-10.479 10.476-2.080 0-4.016-0.608-5.645-1.653 0.288 0.034 0.581 0.052 0.878 0.052 1.726 0 3.313-0.589 4.574-1.576-1.611-0.030-2.972-1.094-3.44-2.558 0.224 0.042 0.456 0.066 0.692 0.066 0.336 0 0.662-0.044 0.971-0.128-1.685-0.338-2.954-1.826-2.954-3.611 0-0.015 0-0.032 0.001-0.046 0.496 0.275 1.064 0.441 1.667 0.46-0.987-0.659-1.638-1.787-1.638-3.065 0-0.675 0.181-1.308 0.498-1.852 1.816 2.229 4.53 3.694 7.59 3.849-0.063-0.27-0.095-0.55-0.095-0.84 0-2.033 1.649-3.683 3.682-3.683 1.060 0 2.015 0.447 2.688 1.163 0.84-0.165 1.626-0.47 2.339-0.894-0.277 0.86-0.859 1.582-1.622 2.038 0.746-0.089 1.457-0.286 2.115-0.579-0.491 0.737-1.116 1.386-1.835 1.904z"></path>
</symbol>
</defs>
</svg>
